<svg width="11" height="11" viewBox="0 0 11 11" fill="none" xmlns="http://www.w3.org/2000/svg">
<g clip-path="url(#clip0_6_297)">
<path d="M2.65485 5.80186L7.74267 10.8756C7.90937 11.0417 8.17925 11.0415 8.34567 10.8747C8.51196 10.7081 8.51153 10.438 8.34481 10.2717L3.55983 5.49998L8.34498 0.728235C8.51168 0.561947 8.51211 0.292083 8.34584 0.125364C8.26242 0.041791 8.15313 2.86102e-06 8.04384 2.86102e-06C7.93483 2.86102e-06 7.82597 0.0415115 7.74269 0.124505L2.65485 5.19813C2.57456 5.27801 2.52951 5.38672 2.52951 5.49998C2.52951 5.61325 2.57469 5.72183 2.65485 5.80186Z" fill="black"/>
</g>
<defs>
<clipPath id="clip0_6_297">
<rect width="11" height="11" fill="white" transform="translate(11 11) rotate(-180)"/>
</clipPath>
</defs>
</svg>
