<svg width="40" height="40" viewBox="0 0 40 40" fill="none" xmlns="http://www.w3.org/2000/svg">
<path d="M23.3387 37.6907C24.018 37.5633 24.6833 37.398 25.3333 37.1967" stroke="#40AD9F" stroke-width="2" stroke-miterlimit="10"/>
<path d="M20 38C20.6747 38 21.3407 37.9627 21.996 37.8907" stroke="#40AD9F" stroke-width="2" stroke-miterlimit="10"/>
<path d="M16.6687 33.6013C10.5447 32.1067 6 26.584 6 20C6 16.134 7.57 12.6374 10.104 10.104L11.0587 11.0587C11.2353 11.2354 11.4753 11.3347 11.726 11.3347C12.2453 11.334 12.6667 10.912 12.6667 10.392V6.00002C12.6667 5.26335 12.07 4.66669 11.3333 4.66669H6.94333C6.42267 4.66669 6 5.08935 6.00067 5.61002C6.00067 5.86002 6.1 6.10002 6.27667 6.27669L7.27333 7.27335C4.016 10.5307 2 15.0294 2 20C2 29.492 9.34733 37.268 18.6653 37.9513" stroke="#40AD9F" stroke-width="2" stroke-miterlimit="10"/>
<path d="M20 34C19.3207 34 18.652 33.9513 17.9987 33.858" stroke="#40AD9F" stroke-width="2" stroke-miterlimit="10"/>
<path d="M16.6613 2.30933C15.982 2.43666 15.3167 2.60199 14.6667 2.80333" stroke="#40AD9F" stroke-width="2" stroke-miterlimit="10"/>
<path d="M20 2C19.3253 2 18.6593 2.03733 18.004 2.10933" stroke="#40AD9F" stroke-width="2" stroke-miterlimit="10"/>
<path d="M23.3313 6.39864C29.4553 7.89331 34 13.416 34 20C34 23.866 32.43 27.3626 29.896 29.896L28.9433 28.9433C28.7667 28.7666 28.5267 28.6673 28.2767 28.6673C27.756 28.6666 27.3333 29.0893 27.3333 29.61V34C27.3333 34.7366 27.93 35.3333 28.6667 35.3333H33.0587C33.5787 35.3333 34.0007 34.912 34.0007 34.392C34.0007 34.142 33.9013 33.902 33.7247 33.7246L32.7267 32.7266C35.984 29.4693 38 24.9706 38 20C38 10.508 30.6527 2.73198 21.3347 2.04865" stroke="#40AD9F" stroke-width="2" stroke-miterlimit="10"/>
<path d="M20 6C20.6793 6 21.348 6.04867 22.0013 6.142" stroke="#40AD9F" stroke-width="2" stroke-miterlimit="10"/>
<path d="M8.292 23.042L22.6667 8.66669L31.3333 17.3334L16.9587 31.7087" stroke="#40AD9F" stroke-width="2" stroke-miterlimit="10"/>
<path d="M18.6667 24.6667C20.5076 24.6667 22 23.1743 22 21.3333C22 19.4924 20.5076 18 18.6667 18C16.8257 18 15.3333 19.4924 15.3333 21.3333C15.3333 23.1743 16.8257 24.6667 18.6667 24.6667Z" stroke="#40AD9F" stroke-width="2" stroke-miterlimit="10"/>
<path d="M13.3333 26.6667H12V28H13.3333V26.6667Z" fill="#40AD9F"/>
<path d="M15.3333 24.6667H14V26H15.3333V24.6667Z" fill="#40AD9F"/>
<path d="M23.3333 16.6667H22V18H23.3333V16.6667Z" fill="#40AD9F"/>
<path d="M25.3333 14.6667H24V16H25.3333V14.6667Z" fill="#40AD9F"/>
</svg>
