<svg width="40" height="40" viewBox="0 0 40 40" fill="none" xmlns="http://www.w3.org/2000/svg">
<path d="M7.33334 10C12.7373 10 17.456 8.27135 20 5.70068C22.544 8.27135 27.2627 10 32.6667 10V22.346C32.6667 25.486 31.1913 28.444 28.6833 30.3334L20 36.8747L11.3167 30.334C8.80868 28.4447 7.33334 25.4867 7.33334 22.346V10Z" stroke="#40AD9F" stroke-width="2" stroke-miterlimit="10"/>
<path d="M30 20V22.0107C30 24.5227 28.82 26.8893 26.8133 28.4007L21.604 32.3247" stroke="#40AD9F" stroke-width="2" stroke-miterlimit="10"/>
<path d="M0.666656 20H3.99999" stroke="#40AD9F" stroke-width="2" stroke-miterlimit="10"/>
<path d="M11.3333 17.3333H10V18.6666H11.3333V17.3333Z" fill="#40AD9F"/>
<path d="M11.3333 20H10V21.3333H11.3333V20Z" fill="#40AD9F"/>
<path d="M11.3333 22.6667H10V24H11.3333V22.6667Z" fill="#40AD9F"/>
<path d="M14.8193 3.79203L13.7607 0.875366" stroke="#40AD9F" stroke-width="2" stroke-miterlimit="10"/>
<path d="M5.81266 31.0107L3.44333 32.4394" stroke="#40AD9F" stroke-width="2" stroke-miterlimit="10"/>
<path d="M5.01066 8.98939L2.29199 7.04205" stroke="#40AD9F" stroke-width="2" stroke-miterlimit="10"/>
<path d="M14.8193 36.2087L13.8246 39.0607" stroke="#40AD9F" stroke-width="2" stroke-miterlimit="10"/>
<path d="M39.3333 20H36" stroke="#40AD9F" stroke-width="2" stroke-miterlimit="10"/>
<path d="M25.1807 3.79203L26.2393 0.875366" stroke="#40AD9F" stroke-width="2" stroke-miterlimit="10"/>
<path d="M34.1873 31.0107L36.5566 32.4394" stroke="#40AD9F" stroke-width="2" stroke-miterlimit="10"/>
<path d="M34.9893 8.98939L37.7086 7.04205" stroke="#40AD9F" stroke-width="2" stroke-miterlimit="10"/>
<path d="M25.1807 36.2087L26.1753 39.0607" stroke="#40AD9F" stroke-width="2" stroke-miterlimit="10"/>
<path d="M30 18.6667V16.6667" stroke="#40AD9F" stroke-width="2" stroke-miterlimit="10"/>
</svg>
