<svg width="40" height="40" viewBox="0 0 40 40" fill="none" xmlns="http://www.w3.org/2000/svg">
<path d="M32 32.6667H24C23.264 32.6667 22.6667 32.0694 22.6667 31.3334V26C22.6667 25.264 23.264 24.6667 24 24.6667H32C32.736 24.6667 33.3334 25.264 33.3334 26V31.3334C33.3334 32.0694 32.736 32.6667 32 32.6667Z" stroke="#40AD9F" stroke-width="1.5" stroke-miterlimit="10"/>
<path d="M26 24.6667V22.6667C26 22.298 26.298 22 26.6667 22H29.3333C29.702 22 30 22.298 30 22.6667V24.6667" stroke="#40AD9F" stroke-width="1.5" stroke-miterlimit="10"/>
<path d="M32.77 24.9133L30.4 28.1253C30.1486 28.4653 29.75 28.6667 29.3266 28.6667H26.6733C26.25 28.6667 25.852 28.4653 25.6006 28.1247L23.23 24.9133" stroke="#40AD9F" stroke-width="1.5" stroke-miterlimit="10"/>
<path d="M12.6666 32.6667C14.5076 32.6667 16 31.1743 16 29.3333C16 27.4924 14.5076 26 12.6666 26C10.8257 26 9.33331 27.4924 9.33331 29.3333C9.33331 31.1743 10.8257 32.6667 12.6666 32.6667Z" stroke="#40AD9F" stroke-width="1.5" stroke-miterlimit="10"/>
<path d="M6.98932 25.836C7.20799 25.482 7.45932 25.15 7.73799 24.844" stroke="#40AD9F" stroke-width="1.5" stroke-miterlimit="10"/>
<path d="M8.95868 23.792C10.0187 23.0814 11.294 22.6667 12.6667 22.6667C13.2893 22.6667 13.8907 22.752 14.462 22.9114" stroke="#40AD9F" stroke-width="1.5" stroke-miterlimit="10"/>
<path d="M13.3333 28.6667H12V30H13.3333V28.6667Z" fill="#40AD9F"/>
<path d="M15.9333 28.6667H18.69" stroke="#40AD9F" stroke-width="1.5" stroke-miterlimit="10"/>
<path d="M4.66663 32.6667H19.9153" stroke="#40AD9F" stroke-width="1.5" stroke-miterlimit="10"/>
<path d="M3.33333 32.6667H2" stroke="#40AD9F" stroke-width="1.5" stroke-miterlimit="10"/>
<path d="M36 7.33337H17.4606C16.114 7.33337 14.838 7.93737 13.9853 8.98004L9.33331 14.6667L3.03931 18.3387C1.98331 18.9547 1.33331 20.0854 1.33331 21.308V26.6387C1.33331 27.7594 2.24065 28.6667 3.36065 28.6667H9.39998" stroke="#40AD9F" stroke-width="1.5" stroke-miterlimit="10"/>
<path d="M37.3333 7.33337H38.6666" stroke="#40AD9F" stroke-width="1.5" stroke-miterlimit="10"/>
<path d="M38.6666 11.3334H37.3333" stroke="#40AD9F" stroke-width="1.5" stroke-miterlimit="10"/>
<path d="M36 11.3334H26" stroke="#40AD9F" stroke-width="1.5" stroke-miterlimit="10"/>
<path d="M38.6666 15.3334H37.3333" stroke="#40AD9F" stroke-width="1.5" stroke-miterlimit="10"/>
<path d="M36 15.3334H30.6666" stroke="#40AD9F" stroke-width="1.5" stroke-miterlimit="10"/>
<path d="M6.66665 16.222V20C6.66665 21.1047 5.77065 22 4.66665 22H1.33331" stroke="#40AD9F" stroke-width="1.5" stroke-miterlimit="10"/>
<path d="M21.3333 14V10.6667C21.3333 10.298 21.0353 10 20.6666 10H17.4599C16.9139 10 16.3966 10.2453 16.0506 10.668L12.0639 15.5407C11.9133 15.724 12.0439 16 12.2813 16H21.3333" stroke="#40AD9F" stroke-width="1.5" stroke-miterlimit="10"/>
<path d="M21.3333 13.3334V18.6667" stroke="#40AD9F" stroke-width="1.5" stroke-miterlimit="10"/>
<path d="M7.33331 35.3334H8.66665" stroke="#40AD9F" stroke-width="1.5" stroke-miterlimit="10"/>
<path d="M10 35.3334H17.3333" stroke="#40AD9F" stroke-width="1.5" stroke-miterlimit="10"/>
<path d="M30 4.66669H28.6666" stroke="#40AD9F" stroke-width="1.5" stroke-miterlimit="10"/>
<path d="M27.3333 4.66669H6" stroke="#40AD9F" stroke-width="1.5" stroke-miterlimit="10"/>
<path d="M28 30.6667V28.6667" stroke="#40AD9F" stroke-width="1.5" stroke-miterlimit="10"/>
<path d="M22.8226 20.2334C23.1366 20.0234 23.4646 19.8314 23.8046 19.6607" stroke="#40AD9F" stroke-width="1.5" stroke-miterlimit="10"/>
<path d="M25.5386 18.9947C26.3226 18.7807 27.148 18.6667 28 18.6667C33.1546 18.6667 37.3333 22.8454 37.3333 28C37.3333 33.1547 33.1546 37.3334 28 37.3334C22.8453 37.3334 18.6666 33.1547 18.6666 28C18.6666 25.5427 19.616 23.308 21.1673 21.642" stroke="#40AD9F" stroke-width="1.5" stroke-miterlimit="10"/>
</svg>
