<svg width="25" height="25" viewBox="0 0 25 25" fill="none" xmlns="http://www.w3.org/2000/svg">
<path d="M12.5004 17.7082C15.3768 17.7082 17.7087 15.3763 17.7087 12.4998C17.7087 9.62335 15.3768 7.2915 12.5004 7.2915C9.62387 7.2915 7.29202 9.62335 7.29202 12.4998C7.29202 15.3763 9.62387 17.7082 12.5004 17.7082Z" fill="#40AD9F"/>
<path d="M22.3958 0H2.60417C1.16615 0 0 1.16615 0 2.60417V22.3958C0 23.8339 1.16615 25 2.60417 25H22.3958C23.8339 25 25 23.8339 25 22.3958V2.60417C25 1.16615 23.8339 0 22.3958 0ZM12.5 20.3125C8.18542 20.3125 4.6875 16.8146 4.6875 12.5C4.6875 8.18542 8.18542 4.6875 12.5 4.6875C16.8146 4.6875 20.3125 8.18542 20.3125 12.5C20.3125 16.8146 16.8146 20.3125 12.5 20.3125ZM20.8333 5.72917C19.9703 5.72917 19.2708 5.02969 19.2708 4.16667C19.2708 3.30365 19.9703 2.60417 20.8333 2.60417C21.6964 2.60417 22.3958 3.30365 22.3958 4.16667C22.3958 5.02969 21.6964 5.72917 20.8333 5.72917Z" fill="#40AD9F"/>
</svg>
